<?xml version="1.0" encoding="iso-8859-1"?>
<!-- Generator: Adobe Illustrator 19.0.0, SVG Export Plug-In . SVG Version: 6.00 Build 0)  -->
<svg version="1.1" id="Capa_1" xmlns="http://www.w3.org/2000/svg" xmlns:xlink="http://www.w3.org/1999/xlink" x="0px" y="0px"
	 viewBox="0 0 512 512" style="enable-background:new 0 0 512 512;" xml:space="preserve">
<path style="fill:#303C42;" d="M256,426.667c-5.063,0-10.125-0.51-15.042-1.521c-14.292-2.917-27.354-9.958-37.75-20.354
	L21.771,212.688C7.729,198.604,0,179.896,0,160c0-41.167,33.5-74.667,74.667-74.667c19.958,0,38.708,7.771,52.813,21.875
	L256,243.292l128.313-135.865c14.313-14.323,33.063-22.094,53.021-22.094C478.5,85.333,512,118.833,512,160
	c0,19.948-7.771,38.698-21.875,52.792L309,404.573c-10.604,10.615-23.667,17.656-37.979,20.573
	C266.125,426.156,261.063,426.667,256,426.667z"/>
<path style="fill:#1E88E5;" d="M74.667,106.667c-29.417,0-53.333,23.927-53.333,53.333c0,14.25,5.542,27.635,15.625,37.708
	c0.063,0.073,0.146,0.146,0.208,0.219l181.333,192c7.229,7.208,16.542,12.24,26.729,14.323c7.042,1.438,14.521,1.438,21.521,0
	c10.208-2.083,19.521-7.115,26.958-14.542l181.125-191.781c10.292-10.292,15.833-23.677,15.833-37.927
	c0-29.406-23.917-53.333-53.333-53.333c-14.25,0-27.646,5.552-37.729,15.625L263.75,266.146c-4,4.271-11.5,4.271-15.5,0
	L112.188,122.073C102.313,112.219,88.917,106.667,74.667,106.667z"/>
<linearGradient id="SVGID_1_" gradientUnits="userSpaceOnUse" x1="-45.8212" y1="641.6509" x2="-25.5128" y2="632.1797" gradientTransform="matrix(21.3333 0 0 -21.3333 996.3334 13791.667)">
	<stop  offset="0" style="stop-color:#FFFFFF;stop-opacity:0.2"/>
	<stop  offset="1" style="stop-color:#FFFFFF;stop-opacity:0"/>
</linearGradient>
<path style="fill:url(#SVGID_1_);" d="M256,426.667c-5.063,0-10.125-0.51-15.042-1.521c-14.292-2.917-27.354-9.958-37.75-20.354
	L21.771,212.688C7.729,198.604,0,179.896,0,160c0-41.167,33.5-74.667,74.667-74.667c19.958,0,38.708,7.771,52.813,21.875
	L256,243.292l128.313-135.865c14.313-14.323,33.063-22.094,53.021-22.094C478.5,85.333,512,118.833,512,160
	c0,19.948-7.771,38.698-21.875,52.792L309,404.573c-10.604,10.615-23.667,17.656-37.979,20.573
	C266.125,426.156,261.063,426.667,256,426.667z"/>
<g>
</g>
<g>
</g>
<g>
</g>
<g>
</g>
<g>
</g>
<g>
</g>
<g>
</g>
<g>
</g>
<g>
</g>
<g>
</g>
<g>
</g>
<g>
</g>
<g>
</g>
<g>
</g>
<g>
</g>
</svg>
