<?xml version="1.0" encoding="iso-8859-1"?>
<!-- Generator: Adobe Illustrator 19.0.0, SVG Export Plug-In . SVG Version: 6.00 Build 0)  -->
<svg version="1.1" id="Capa_1" xmlns="http://www.w3.org/2000/svg" xmlns:xlink="http://www.w3.org/1999/xlink" x="0px" y="0px"
	 viewBox="0 0 512 512" style="enable-background:new 0 0 512 512;" xml:space="preserve">
<path style="fill:#303C42;" d="M437.333,426.664c-19.958,0-38.708-7.771-52.813-21.885L256,268.695L127.688,404.56
	c-14.313,14.333-33.063,22.104-53.021,22.104C33.5,426.664,0,393.164,0,351.997c0-19.948,7.771-38.698,21.875-52.802L203,107.414
	c10.604-10.615,23.667-17.646,37.979-20.563c9.792-2.021,20.229-2.021,30.063,0c14.292,2.917,27.354,9.948,37.75,20.333
	l181.438,192.115C504.271,313.393,512,332.102,512,351.997C512,393.164,478.5,426.664,437.333,426.664z"/>
<path style="fill:#1E88E5;" d="M256,242.497c2.938,0,5.75,1.208,7.75,3.344l136.063,144.073
	c9.875,9.865,23.271,15.417,37.521,15.417c29.417,0,53.333-23.927,53.333-53.333c0-14.25-5.542-27.646-15.625-37.719
	c-0.063-0.073-0.146-0.146-0.208-0.219l-181.333-192c-7.229-7.198-16.542-12.229-26.729-14.313c-7.042-1.438-14.521-1.438-21.521,0
	c-10.208,2.083-19.521,7.115-26.958,14.542L37.167,314.06c-10.292,10.292-15.833,23.688-15.833,37.938
	c0,29.406,23.917,53.333,53.333,53.333c14.25,0,27.646-5.552,37.729-15.635L248.25,245.841
	C250.25,243.706,253.063,242.497,256,242.497z"/>
<linearGradient id="SVGID_1_" gradientUnits="userSpaceOnUse" x1="-43.8927" y1="636.7896" x2="-23.5859" y2="627.3165" gradientTransform="matrix(21.3333 0 0 -21.3333 996.3334 13791.667)">
	<stop  offset="0" style="stop-color:#FFFFFF;stop-opacity:0.2"/>
	<stop  offset="1" style="stop-color:#FFFFFF;stop-opacity:0"/>
</linearGradient>
<path style="fill:url(#SVGID_1_);" d="M437.333,426.664c-19.958,0-38.708-7.771-52.813-21.885L256,268.695L127.688,404.56
	c-14.313,14.333-33.063,22.104-53.021,22.104C33.5,426.664,0,393.164,0,351.997c0-19.948,7.771-38.698,21.875-52.802L203,107.414
	c10.604-10.615,23.667-17.646,37.979-20.563c9.792-2.021,20.229-2.021,30.063,0c14.292,2.917,27.354,9.948,37.75,20.333
	l181.438,192.115C504.271,313.393,512,332.102,512,351.997C512,393.164,478.5,426.664,437.333,426.664z"/>
<g>
</g>
<g>
</g>
<g>
</g>
<g>
</g>
<g>
</g>
<g>
</g>
<g>
</g>
<g>
</g>
<g>
</g>
<g>
</g>
<g>
</g>
<g>
</g>
<g>
</g>
<g>
</g>
<g>
</g>
</svg>
